# Blender v2.79 (sub 0) OBJ File: 'Kartell XR room .blend1'
# www.blender.org
mtllib Collision.mtl
o structrue_Plane.001
v 5.000000 0.000000 3.000000
v -4.000000 0.000000 3.000000
v 5.000000 0.000000 -3.000000
v -4.000000 0.000000 -3.000000
v -1.000000 0.000000 3.000000
v 0.500000 0.000000 3.000000
v 0.500000 4.000000 3.000000
v -1.000000 4.000000 3.000000
v -4.000000 4.000000 -1.000000
v 5.000000 4.000000 -1.000000
v -4.000000 4.000000 3.000000
v 5.000000 4.000000 3.000000
vt 0.296007 0.332768
vt 0.295668 0.443389
vt 0.294989 0.664630
vt 0.000000 0.663726
vt 0.000679 0.442484
vt 0.001018 0.331863
vt 0.002036 0.000000
vt 0.297025 0.000905
vt 1.000000 0.000905
vt 0.999095 0.295894
vt 0.703653 0.442484
vt 0.705011 0.000000
vt 0.704558 0.738378
vt 0.703653 0.443389
vt 0.998643 0.442484
vt 1.000000 0.884967
vt 0.703653 0.000905
vt 0.702635 0.332768
vt 0.702296 0.443389
vt 0.701617 0.664630
vt 0.406628 0.663725
vt 0.408664 0.000000
vn 0.0000 0.0000 -1.0000
vn -1.0000 0.0000 0.0000
vn 1.0000 0.0000 0.0000
vn 0.0000 -1.0000 0.0000
vn 0.0000 1.0000 0.0000
vn 0.0000 -0.4472 0.8944
usemtl wall
s off
f 6/1/1 5/2/1 2/3/1 11/4/1 8/5/1 7/6/1 12/7/1 1/8/1
f 12/9/2 10/10/2 3/11/2 1/12/2
f 9/13/3 11/14/3 2/15/3 4/16/3
f 12/17/4 7/18/4 8/19/4 11/20/4 9/21/4 10/22/4
f 5/2/5 6/1/5 1/8/5 3/11/5 4/16/5 2/15/5
f 10/10/6 9/13/6 4/16/6 3/11/6
